<svg width="40" height="38" viewBox="0 0 40 38" fill="none" xmlns="http://www.w3.org/2000/svg">
<path d="M7.1 16.0661C6.64157 19.4 6.36842 22.7544 6.28167 26.1156C11.0796 28.0196 15.6736 30.3579 20 33.0981C24.3269 30.3578 28.9215 28.0195 33.72 26.1156C33.6332 22.7544 33.36 19.4 32.9017 16.0661M32.9017 16.0661C34.36 15.6006 35.8383 15.17 37.3317 14.7773C31.8926 11.155 26.0866 8.05745 20 5.53064C13.9133 8.05799 8.10733 11.1561 2.66833 14.7789C4.15714 15.1693 5.63436 15.5986 7.09833 16.0661C11.5461 17.4866 15.8616 19.2565 20 21.3576C24.1379 19.2567 28.4545 17.4867 32.9017 16.0661ZM11.25 23.7501C11.5815 23.7501 11.8995 23.6249 12.1339 23.4022C12.3683 23.1795 12.5 22.8775 12.5 22.5626C12.5 22.2476 12.3683 21.9456 12.1339 21.7229C11.8995 21.5002 11.5815 21.3751 11.25 21.3751C10.9185 21.3751 10.6005 21.5002 10.3661 21.7229C10.1317 21.9456 10 22.2476 10 22.5626C10 22.8775 10.1317 23.1795 10.3661 23.4022C10.6005 23.6249 10.9185 23.7501 11.25 23.7501ZM11.25 23.7501V17.9313C14.0779 16.2614 16.9988 14.7381 20 13.3681M8.32167 31.6556C9.25162 30.7744 9.98906 29.7272 10.4916 28.5742C10.9942 27.4213 11.2519 26.1854 11.25 24.9376V22.5626" stroke="#FEF1F1" stroke-width="1.5" stroke-linecap="round" stroke-linejoin="round"/>
</svg>
