<svg width="40" height="38" viewBox="0 0 40 38" fill="none" xmlns="http://www.w3.org/2000/svg">
<path d="M12.5 13.0625H27.5M12.5 17.8125H20M3.75 20.2033C3.75 22.7367 5.62167 24.9438 8.26167 25.3128C10.1433 25.5756 12.045 25.7767 13.9667 25.9128C14.55 25.954 15.0833 26.2453 15.4083 26.7061L20 33.25L24.5917 26.7061C24.7527 26.4785 24.9663 26.2888 25.2161 26.1513C25.4659 26.0139 25.7454 25.9323 26.0333 25.9128C27.9419 25.7775 29.8448 25.5773 31.7383 25.3128C34.3783 24.9438 36.25 22.7383 36.25 20.2018V10.6733C36.25 8.13675 34.3783 5.93117 31.7383 5.56225C27.8516 5.0203 23.9284 4.74883 20 4.75C16.0133 4.75 12.0933 5.02709 8.26167 5.56225C5.62167 5.93117 3.75 8.13834 3.75 10.6733V20.2018V20.2033Z" stroke="#FEF1F1" stroke-width="1.5" stroke-linecap="round" stroke-linejoin="round"/>
</svg>
