<svg width="174" height="152" viewBox="0 0 174 152" fill="none" xmlns="http://www.w3.org/2000/svg">
<path d="M154.645 141.688H20.6153L9.44612 151H167.676L154.645 141.688Z" fill="#CB3A3A"/>
<path d="M83.9073 2L2 141.688L16.8922 134.238L83.9073 22.4875V2Z" fill="#CB3A3A"/>
<path d="M91.3534 2L172.33 141.688L156.507 134.238L91.3534 22.4875V2Z" fill="#CB3A3A"/>
<path d="M133.238 108.162L87.6303 33.6625L31.7845 126.787H121.138M57.8459 108.162L89.4919 56.0125M73.6689 107.231H114.622L94.1457 75.5687L86.6996 88.6062M20.6153 141.687H154.645L167.676 151H9.44612L20.6153 141.687ZM2 141.687L83.9073 2V22.4875L16.8922 134.237L2 141.687ZM172.33 141.687L91.3534 2V22.4875L156.507 134.237L172.33 141.687Z" stroke="#CB3A3A"/>
<path d="M131.216 126.115C131.216 129.274 128.794 131.834 125.806 131.834C122.818 131.834 120.396 129.274 120.396 126.115C120.396 122.957 122.818 120.396 125.806 120.396C128.794 120.396 131.216 122.957 131.216 126.115Z" fill="#CB3A3A"/>
<path d="M51.4606 107.258C51.4606 110.246 48.9693 112.668 45.8963 112.668C42.8232 112.668 40.3319 110.246 40.3319 107.258C40.3319 104.271 42.8232 101.849 45.8963 101.849C48.9693 101.849 51.4606 104.271 51.4606 107.258Z" fill="#CB3A3A"/>
<path d="M90.4108 92.4201C90.4108 95.4078 87.9196 97.8299 84.8465 97.8299C81.7734 97.8299 79.2822 95.4078 79.2822 92.4201C79.2822 89.4324 81.7734 87.0104 84.8465 87.0104C87.9196 87.0104 90.4108 89.4324 90.4108 92.4201Z" fill="#CB3A3A"/>
<path d="M122.251 83.1463C122.251 86.3047 119.691 88.8651 116.532 88.8651C113.374 88.8651 110.813 86.3047 110.813 83.1463C110.813 79.9878 113.374 77.4274 116.532 77.4274C119.691 77.4274 122.251 79.9878 122.251 83.1463Z" fill="#CB3A3A"/>
</svg>
