<svg width="40" height="38" viewBox="0 0 40 38" fill="none" xmlns="http://www.w3.org/2000/svg">
<path d="M20 11.875H22.5M20 16.625H22.5M10 21.375H22.5M10 26.125H22.5M27.5 11.875H33.125C34.16 11.875 35 12.673 35 13.6563V28.5C35 29.4448 34.6049 30.351 33.9016 31.0191C33.1984 31.6872 32.2446 32.0625 31.25 32.0625M27.5 11.875V28.5C27.5 29.4448 27.8951 30.351 28.5983 31.0191C29.3016 31.6872 30.2554 32.0625 31.25 32.0625M27.5 11.875V7.71875C27.5 6.7355 26.66 5.9375 25.625 5.9375H6.875C5.84 5.9375 5 6.7355 5 7.71875V28.5C5 29.4448 5.39509 30.351 6.09835 31.0191C6.80161 31.6872 7.75544 32.0625 8.75 32.0625H31.25M10 11.875H15V16.625H10V11.875Z" stroke="#FEF1F1" stroke-width="1.5" stroke-linecap="round" stroke-linejoin="round"/>
</svg>
