<svg width="40" height="38" viewBox="0 0 40 38" fill="none" xmlns="http://www.w3.org/2000/svg">
<path d="M29.97 29.6479C28.8054 28.1832 27.2988 26.9953 25.5686 26.1779C23.8385 25.3605 21.9323 24.9359 20 24.9375C18.0678 24.9359 16.1615 25.3605 14.4314 26.1779C12.7013 26.9953 11.1946 28.1832 10.03 29.6479M29.97 29.6479C32.2425 27.7277 33.8452 25.1965 34.5686 22.3901C35.2921 19.5837 35.1004 16.6347 34.0191 13.9341C32.9378 11.2336 31.0179 8.90908 28.514 7.26894C26.0101 5.6288 23.0406 4.75049 19.9992 4.75049C16.9578 4.75049 13.9882 5.6288 11.4844 7.26894C8.98047 8.90908 7.06056 11.2336 5.97924 13.9341C4.89791 16.6347 4.70626 19.5837 5.42971 22.3901C6.15316 25.1965 7.75751 27.7277 10.03 29.6479M29.97 29.6479C27.2267 31.9726 23.6761 33.255 20 33.25C16.3234 33.2554 12.7737 31.9729 10.03 29.6479M25 15.4375C25 16.6973 24.4732 17.9055 23.5355 18.7963C22.5979 19.6871 21.3261 20.1875 20 20.1875C18.6739 20.1875 17.4022 19.6871 16.4645 18.7963C15.5268 17.9055 15 16.6973 15 15.4375C15 14.1777 15.5268 12.9696 16.4645 12.0788C17.4022 11.188 18.6739 10.6875 20 10.6875C21.3261 10.6875 22.5979 11.188 23.5355 12.0788C24.4732 12.9696 25 14.1777 25 15.4375Z" stroke="#FEF1F1" stroke-width="1.5" stroke-linecap="round" stroke-linejoin="round"/>
</svg>
